<?xml version="1.0" encoding="UTF-8" standalone="no"?> <svg width="24" height="24" viewBox="0 0 24 24" fill="none" xmlns="http://www.w3.org/2000/svg">
<path fill-rule="evenodd" clip-rule="evenodd" d="M7 1C7.55228 1 8 1.44772 8 2V3H16V2C16 1.44772 16.4477 1 17 1C17.5523 1 18 1.44772 18 2V3H20C21.6569 3 23 4.34315 23 6V20C23 21.6569 21.6569 23 20 23H4C2.34315 23 1 21.6569 1 20V6C1 4.34315 2.34315 3 4 3H6V2C6 1.44772 6.44772 1 7 1ZM4 5C3.44772 5 3 5.44771 3 6V8H21V6C21 5.44772 20.5523 5 20 5H4ZM21 10H3V20C3 20.5523 3.44772 21 4 21H20C20.5523 21 21 20.5523 21 20V10Z" fill="#293644"/>
</svg>
